<svg width="32" height="24" viewBox="0 0 32 24" fill="none" xmlns="http://www.w3.org/2000/svg">
<mask id="mask0_2_2621" style="mask-type:luminance" maskUnits="userSpaceOnUse" x="0" y="0" width="32" height="24">
<rect width="32" height="24" fill="white"/>
</mask>
<g mask="url(#mask0_2_2621)">
<path fill-rule="evenodd" clip-rule="evenodd" d="M0 0H32V24H0V0Z" fill="#E31D1C"/>
<path fill-rule="evenodd" clip-rule="evenodd" d="M15.0157 4.54813L14.0056 5.15797L14.236 3.96794L13.3948 3.07732L14.5338 3.02916L15.0157 1.91797L15.4977 3.02916H16.6348L15.7955 3.96794L16.0482 5.15797L15.0157 4.54813Z" fill="#FECA00"/>
<path fill-rule="evenodd" clip-rule="evenodd" d="M7.01754 9.60703L4.1367 11.158L4.7938 8.13147L2.39478 5.86644L5.6432 5.74397L7.01754 2.91797L8.39188 5.74397H11.6348L9.24127 8.13147L9.96186 11.158L7.01754 9.60703Z" fill="#FECA00"/>
<path fill-rule="evenodd" clip-rule="evenodd" d="M17.0157 8.54813L16.0056 9.15797L16.236 7.96794L15.3948 7.07732L16.5338 7.02916L17.0157 5.91797L17.4977 7.02916H18.6348L17.7955 7.96794L18.0482 9.15797L17.0157 8.54813Z" fill="#FECA00"/>
<path fill-rule="evenodd" clip-rule="evenodd" d="M16.0157 12.5481L15.0056 13.158L15.236 11.9679L14.3948 11.0773L15.5338 11.0292L16.0157 9.91797L16.4977 11.0292H17.6348L16.7955 11.9679L17.0482 13.158L16.0157 12.5481Z" fill="#FECA00"/>
<path fill-rule="evenodd" clip-rule="evenodd" d="M13.0157 15.5481L12.0056 16.158L12.236 14.9679L11.3948 14.0773L12.5338 14.0292L13.0157 12.918L13.4977 14.0292H14.6348L13.7955 14.9679L14.0482 16.158L13.0157 15.5481Z" fill="#FECA00"/>
</g>
</svg>
