<svg width="20" height="24" viewBox="0 0 20 24" fill="none" xmlns="http://www.w3.org/2000/svg">
<g clip-path="url(#clip0_2_2726)">
<path d="M19.2913 18.0874C18.9409 18.8983 18.5261 19.6447 18.0455 20.3309C17.3904 21.2664 16.854 21.9139 16.4406 22.2735C15.7999 22.8638 15.1133 23.166 14.3781 23.1832C13.8503 23.1832 13.2138 23.0328 12.4729 22.7277C11.7295 22.4239 11.0464 22.2735 10.4217 22.2735C9.76664 22.2735 9.06406 22.4239 8.31255 22.7277C7.5599 23.0328 6.95358 23.1918 6.49 23.2076C5.78499 23.2377 5.08226 22.9268 4.38081 22.2735C3.93311 21.8824 3.37313 21.2119 2.7023 20.2621C1.98255 19.2478 1.39081 18.0717 0.927239 16.7307C0.430765 15.2823 0.181885 13.8798 0.181885 12.522C0.181885 10.9666 0.517444 9.62509 1.18956 8.50092C1.71779 7.59794 2.42052 6.88564 3.30004 6.36274C4.17956 5.83983 5.12989 5.57337 6.1533 5.55632C6.71328 5.55632 7.44762 5.72981 8.36018 6.07077C9.27017 6.41288 9.85447 6.58637 10.1106 6.58637C10.3022 6.58637 10.9513 6.38351 12.0516 5.97908C13.0922 5.60403 13.9704 5.44873 14.6899 5.5099C16.6395 5.66749 18.1041 6.43723 19.0782 7.82401C17.3346 8.88214 16.4721 10.3642 16.4893 12.2654C16.505 13.7463 17.0414 14.9786 18.0956 15.9571C18.5733 16.4112 19.1068 16.7622 19.7004 17.0115C19.5717 17.3854 19.4358 17.7436 19.2913 18.0874V18.0874ZM14.8201 0.464802C14.8201 1.62552 14.3967 2.70928 13.5528 3.7124C12.5344 4.90491 11.3026 5.594 9.96675 5.48526C9.94973 5.34601 9.93986 5.19945 9.93986 5.04545C9.93986 3.93116 10.4242 2.73865 11.2842 1.76361C11.7136 1.26993 12.2597 0.859445 12.922 0.531991C13.5828 0.209423 14.2079 0.0310363 14.7957 0.000488281C14.8129 0.155658 14.8201 0.310838 14.8201 0.464787V0.464802Z" fill="black"/>
</g>
<defs>
<clipPath id="clip0_2_2726">
<rect width="19.5185" height="23.2091" fill="white" transform="translate(0.181885)"/>
</clipPath>
</defs>
</svg>
