<svg width="24" height="24" viewBox="0 0 24 24" fill="none" xmlns="http://www.w3.org/2000/svg">
<g clip-path="url(#clip0_2_2721)">
<path d="M5.13758 14.0226L4.33065 17.035L1.38136 17.0974C0.499949 15.4626 0 13.5921 0 11.6045C0 9.68242 0.46744 7.86989 1.29601 6.27393H1.29664L3.92235 6.75531L5.07256 9.36526C4.83182 10.0671 4.70061 10.8205 4.70061 11.6045C4.7007 12.4553 4.85482 13.2705 5.13758 14.0226Z" fill="#FBBB00"/>
<path d="M22.9793 9.43896C23.1124 10.1401 23.1818 10.8642 23.1818 11.6043C23.1818 12.4341 23.0945 13.2436 22.9283 14.0244C22.3641 16.6814 20.8897 19.0015 18.8473 20.6433L18.8467 20.6427L15.5395 20.4739L15.0714 17.552C16.4266 16.7572 17.4858 15.5134 18.0437 14.0244H11.8457V9.43896H18.1341H22.9793Z" fill="#518EF8"/>
<path d="M18.8462 20.6431L18.8468 20.6438C16.8605 22.2404 14.3372 23.1957 11.5904 23.1957C7.17632 23.1957 3.33859 20.7285 1.38086 17.0977L5.13709 14.0229C6.11593 16.6353 8.636 18.495 11.5904 18.495C12.8603 18.495 14.05 18.1517 15.0709 17.5524L18.8462 20.6431Z" fill="#28B446"/>
<path d="M18.9892 2.68212L15.2343 5.75624C14.1777 5.09583 12.9288 4.71433 11.5908 4.71433C8.56951 4.71433 6.00231 6.65929 5.0725 9.36536L1.29653 6.27403H1.2959C3.22497 2.55475 7.11109 0.0136719 11.5908 0.0136719C14.4032 0.0136719 16.9818 1.01547 18.9892 2.68212Z" fill="#F14336"/>
</g>
<defs>
<clipPath id="clip0_2_2721">
<rect width="23.1818" height="23.1818" fill="white" transform="translate(0 0.0136719)"/>
</clipPath>
</defs>
</svg>
