<svg width="91" height="77" viewBox="0 0 91 77" fill="none" xmlns="http://www.w3.org/2000/svg">
<circle cx="36" cy="40.2905" r="36" fill="#F9FAFB"/>
<circle cx="1" cy="69.2905" r="1" fill="#86EFAC"/>
<circle cx="69" cy="75.2905" r="1" fill="#FDE047"/>
<circle cx="13" cy="5.29053" r="1" fill="#E5E7EB"/>
<path opacity="0.8" fill-rule="evenodd" clip-rule="evenodd" d="M31.6001 39.5096V32.5906C31.6001 30.5485 32.4113 28.5899 33.8554 27.1459C35.2994 25.7019 37.2579 24.8906 39.3001 24.8906C41.3423 24.8906 43.3008 25.7019 44.7448 27.1459C46.1888 28.5899 47.0001 30.5485 47.0001 32.5906V39.5096C50.1813 40.4556 52.5001 43.4036 52.5001 46.8906V53.4906C52.5001 55.5328 51.6889 57.4913 50.2448 58.9353C48.8008 60.3794 46.8423 61.1906 44.8001 61.1906H33.8001C31.7579 61.1906 29.7994 60.3794 28.3554 58.9353C26.9113 57.4913 26.1001 55.5328 26.1001 53.4906V46.8906C26.1004 45.2323 26.6358 43.6182 27.6266 42.2885C28.6175 40.9587 30.0111 39.9841 31.6001 39.5096V39.5096ZM34.9001 39.1906V32.5906C34.9001 31.4237 35.3637 30.3045 36.1888 29.4794C37.014 28.6542 38.1331 28.1906 39.3001 28.1906C40.4671 28.1906 41.5862 28.6542 42.4114 29.4794C43.2365 30.3045 43.7001 31.4237 43.7001 32.5906V39.1906H34.9001Z" fill="#97EDFF"/>
<path fill-rule="evenodd" clip-rule="evenodd" d="M30.5 45.7906C30.5 46.9576 30.9636 48.0767 31.7887 48.9019C32.6139 49.7271 33.733 50.1906 34.9 50.1906C36.067 50.1906 37.1861 49.7271 38.0113 48.9019C38.8364 48.0767 39.3 46.9576 39.3 45.7906C39.3 44.6237 38.8364 43.5045 38.0113 42.6794C37.1861 41.8542 36.067 41.3906 34.9 41.3906C33.733 41.3906 32.6139 41.8542 31.7887 42.6794C30.9636 43.5045 30.5 44.6237 30.5 45.7906V45.7906ZM37.1 45.7906C37.1 46.3741 36.8682 46.9337 36.4556 47.3463C36.0431 47.7588 35.4835 47.9906 34.9 47.9906C34.3165 47.9906 33.7569 47.7588 33.3444 47.3463C32.9318 46.9337 32.7 46.3741 32.7 45.7906C32.7 45.2072 32.9318 44.6476 33.3444 44.235C33.7569 43.8224 34.3165 43.5906 34.9 43.5906C35.4835 43.5906 36.0431 43.8224 36.4556 44.235C36.8682 44.6476 37.1 45.2072 37.1 45.7906V45.7906Z" fill="#0A6375"/>
<path fill-rule="evenodd" clip-rule="evenodd" d="M40.4002 34.7905H29.4002C27.358 34.7905 25.3995 35.6018 23.9555 37.0458C22.5114 38.4898 21.7002 40.4484 21.7002 42.4905V49.0905C21.7002 51.1327 22.5114 53.0912 23.9555 54.5353C25.3995 55.9793 27.358 56.7905 29.4002 56.7905H40.4002C42.4424 56.7905 44.4009 55.9793 45.8449 54.5353C47.2889 53.0912 48.1002 51.1327 48.1002 49.0905V42.4905C48.1002 40.4484 47.2889 38.4898 45.8449 37.0458C44.4009 35.6018 42.4424 34.7905 40.4002 34.7905V34.7905ZM23.9002 42.4905C23.9002 41.0318 24.4797 39.6329 25.5111 38.6014C26.5426 37.57 27.9415 36.9905 29.4002 36.9905H40.4002C41.8589 36.9905 43.2578 37.57 44.2893 38.6014C45.3207 39.6329 45.9002 41.0318 45.9002 42.4905V49.0905C45.9002 50.5492 45.3207 51.9482 44.2893 52.9796C43.2578 54.0111 41.8589 54.5905 40.4002 54.5905H29.4002C27.9415 54.5905 26.5426 54.0111 25.5111 52.9796C24.4797 51.9482 23.9002 50.5492 23.9002 49.0905V42.4905Z" fill="#0A6375"/>
<path d="M29.4002 35.8907C29.4002 36.1825 29.2843 36.4623 29.078 36.6685C28.8717 36.8748 28.5919 36.9907 28.3002 36.9907C28.0085 36.9907 27.7287 36.8748 27.5224 36.6685C27.3161 36.4623 27.2002 36.1825 27.2002 35.8907V28.1907C27.2002 27.1795 27.3994 26.1783 27.7863 25.2441C28.1733 24.3099 28.7405 23.461 29.4555 22.746C30.1705 22.031 31.0193 21.4638 31.9535 21.0769C32.8877 20.6899 33.889 20.4907 34.9002 20.4907C35.9114 20.4907 36.9126 20.6899 37.8469 21.0769C38.7811 21.4638 39.6299 22.031 40.3449 22.746C41.0599 23.461 41.6271 24.3099 42.0141 25.2441C42.401 26.1783 42.6002 27.1795 42.6002 28.1907V35.8907C42.6002 36.1825 42.4843 36.4623 42.278 36.6685C42.0717 36.8748 41.7919 36.9907 41.5002 36.9907C41.2085 36.9907 40.9287 36.8748 40.7224 36.6685C40.5161 36.4623 40.4002 36.1825 40.4002 35.8907V28.1907C40.4002 26.732 39.8207 25.3331 38.7893 24.3016C37.7578 23.2702 36.3589 22.6907 34.9002 22.6907C33.4415 22.6907 32.0426 23.2702 31.0111 24.3016C29.9797 25.3331 29.4002 26.732 29.4002 28.1907V35.8907Z" fill="#0A6375"/>
<path fill-rule="evenodd" clip-rule="evenodd" d="M79.9715 22.9245C82.0454 22.754 84.1698 22.8517 86.2282 22.9603C86.6713 22.985 87.028 23.329 86.993 23.722C86.989 24.1205 86.6179 24.4225 86.2058 24.403C84.211 24.2962 82.1516 24.1947 80.174 24.3621C79.7523 24.3996 79.3546 24.1068 79.2946 23.7092C79.2344 23.312 79.5497 22.9623 79.9715 22.9245Z" fill="#FFF1EE"/>
<path fill-rule="evenodd" clip-rule="evenodd" d="M75.1772 14.6821C78.883 12.2479 82.927 10.266 86.5843 7.74131C86.9124 7.50323 87.4118 7.57256 87.6769 7.89215C87.9419 8.21202 87.8964 8.66622 87.5372 8.89901C83.8785 11.4325 79.833 13.4229 76.1257 15.8659C75.7677 16.0918 75.2704 16.0112 75.0066 15.684C74.7738 15.3623 74.8192 14.9081 75.1772 14.6821Z" fill="#FFF1EE"/>
<path fill-rule="evenodd" clip-rule="evenodd" d="M71.1357 2.20274C70.7521 3.8919 70.3687 5.58109 69.985 7.27053C69.9185 7.66108 69.4943 7.89913 69.0628 7.80608C68.6314 7.71276 68.3777 7.32745 68.4443 6.93662C68.8284 5.24462 69.2122 3.55288 69.5963 1.86117C69.6938 1.47591 70.1175 1.23983 70.5486 1.33514C70.9487 1.42516 71.2332 1.81776 71.1357 2.20274Z" fill="#FFF1EE"/>
<path fill-rule="evenodd" clip-rule="evenodd" d="M77.9487 21.9534C80.0391 21.7815 82.1802 21.88 84.2549 21.9894C84.7015 22.0143 85.0611 22.361 85.0258 22.7571C85.0218 23.1589 84.6477 23.4632 84.2324 23.4436C82.2218 23.3359 80.1461 23.2337 78.1528 23.4023C77.7277 23.4402 77.327 23.145 77.2664 22.7443C77.2058 22.3439 77.5235 21.9915 77.9487 21.9534Z" fill="#FFB9AA"/>
<path fill-rule="evenodd" clip-rule="evenodd" d="M73.1163 13.6452C76.8514 11.1918 80.9275 9.19415 84.6137 6.64949C84.9444 6.40953 85.4478 6.4794 85.7149 6.80152C85.9821 7.12393 85.9362 7.58172 85.5742 7.81636C81.8864 10.3699 77.8089 12.3761 74.0723 14.8384C73.7115 15.0661 73.2102 14.9849 72.9443 14.655C72.7097 14.3308 72.7555 13.873 73.1163 13.6452Z" fill="#FFB9AA"/>
<path fill-rule="evenodd" clip-rule="evenodd" d="M69.0431 1.06705C68.6565 2.76958 68.27 4.47215 67.8833 6.17497C67.8163 6.56861 67.3887 6.80854 66.9538 6.71476C66.519 6.6207 66.2633 6.23234 66.3304 5.83841C66.7175 4.13302 67.1044 2.42788 67.4915 0.722776C67.5898 0.334468 68.0169 0.096513 68.4514 0.192577C68.8546 0.28331 69.1414 0.679025 69.0431 1.06705Z" fill="#FFB9AA"/>
</svg>
