<svg width="72" height="72" viewBox="0 0 72 72" fill="none" xmlns="http://www.w3.org/2000/svg">
<path d="M32 2.3094C34.4752 0.880339 37.5248 0.880339 40 2.3094L63.1769 15.6906C65.6521 17.1197 67.1769 19.7607 67.1769 22.6188V49.3812C67.1769 52.2393 65.6521 54.8803 63.1769 56.3094L40 69.6906C37.5248 71.1197 34.4752 71.1197 32 69.6906L8.82308 56.3094C6.34788 54.8803 4.82309 52.2393 4.82309 49.3812V22.6188C4.82309 19.7607 6.34788 17.1197 8.82309 15.6906L32 2.3094Z" fill="#111827"/>
<path d="M43.1676 45.1147L26.3131 52.2165C24.5622 52.9529 23.0403 50.7765 24.3331 49.3856L37.1131 35.5093L43.7403 42.2511C44.624 43.1347 44.3295 44.6402 43.1676 45.1147Z" fill="white"/>
<path d="M47.7332 22.533L37.1133 35.5094L30.486 28.8003C29.6024 27.9003 29.8969 26.3948 31.0587 25.9203L45.6878 19.7839C47.3896 19.0639 48.9114 21.1094 47.7332 22.533Z" fill="white"/>
</svg>
